<?xml version="1.0"?>
<svg xmlns="http://www.w3.org/2000/svg" xmlns:xlink="http://www.w3.org/1999/xlink" version="1.1" id="Capa_1" x="0px" y="0px" viewBox="0 0 211.076 211.076" style="enable-background:new 0 0 211.076 211.076;" xml:space="preserve" width="512px" height="512px" class=""><g><path d="M105.47,211.076c-37.51,0-68.027-30.517-68.027-68.028v-0.988h-1.488c-11.568,0-20.979-9.411-20.979-20.979v-9.606  c0-11.568,9.411-20.979,20.979-20.979h1.488V59.579c0-11.853,5.486-23.12,14.753-30.465c-0.333-1.606-0.506-3.262-0.506-4.943  c0-4.319,2.3-8.756,6.153-11.868c0.039-0.031,0.078-0.061,0.118-0.09l2.334-1.666c0.083-0.059,0.169-0.113,0.258-0.162  c0.363-0.198,0.774-0.445,1.245-0.728c2.199-1.319,5.522-3.313,11.018-4.99c7.578-2.485,15.577-3.941,24.416-4.437  c33.882-1.898,64.038,8.071,73.364,24.252c1.193,1.927,2.005,3.411,2.795,5.111c7.619,16.386,1.423,33.585,0.107,36.862v24.041  h1.624c11.568,0,20.979,9.411,20.979,20.979v9.606c0,11.568-9.411,20.979-20.979,20.979h-1.624v0.988  C173.498,180.559,142.981,211.076,105.47,211.076z M42.443,139.561v3.488c0,34.754,28.274,63.028,63.027,63.028  c34.754,0,63.028-28.274,63.028-63.028v-21.191h-4.429c-0.668,0-1.308-0.267-1.778-0.742s-0.729-1.118-0.722-1.786  c0.003-0.29,0.303-29.081-1.925-37.996c-2.04-8.159-7.934-11.366-7.994-11.398c-0.604-0.32-1.051-0.874-1.235-1.533  c-0.185-0.658-0.092-1.364,0.257-1.952c0.033-0.055,3.431-5.876,3.581-11.458c0.023-0.87-3.561-2.988-8.3-4.337  c-5.417-1.16-9.583-1.1-9.687-1.096c-0.019,0-0.042,0-0.061,0h-52c-7.521,0-14.019-1.292-19.313-3.842  c-0.886-0.426-1.738-0.908-2.554-1.439c-2.335,2.7-5.657,7.304-5.648,10.775c0.014,5.525,3.523,11.304,3.559,11.361  c0.361,0.588,0.464,1.302,0.283,1.968s-0.63,1.229-1.24,1.552c-0.231,0.126-5.98,3.342-7.994,11.398  c-2.229,8.915-1.929,37.706-1.925,37.996c0.007,0.668-0.252,1.311-0.722,1.786s-1.11,0.742-1.778,0.742h-4.429V139.561z   M173.634,137.061h1.488c8.811,0,15.979-7.168,15.979-15.979v-9.606c0-8.811-7.168-15.979-15.979-15.979h-1.488V137.061z   M35.955,95.496c-8.811,0-15.979,7.168-15.979,15.979v9.606c0,8.811,7.168,15.979,15.979,15.979h1.488V95.496H35.955z   M166.585,116.858h1.913V66.593c-2.173-4.74-5.537-8.161-9.288-10.63c-0.302,4.367-1.991,8.548-3.146,10.954  c2.525,1.973,6.663,6.137,8.43,13.204C166.493,88.117,166.608,109.459,166.585,116.858z M42.443,116.858h1.913  c-0.023-7.398,0.092-28.741,2.091-36.737c1.761-7.043,5.876-11.204,8.404-13.185c-1.272-2.577-3.15-7.171-3.162-11.869  c-0.013-5.307,4.219-11.005,6.778-13.963c-1.923-1.964-3.501-4.273-4.648-6.826C46.643,40.668,42.443,49.9,42.443,59.579V116.858z   M136.651,44.477c3.392,0,23.563,0.639,33.743,15.312c0.355-1.348,0.71-2.915,1.002-4.647c-2.933-2.857-13.529-12.21-29.297-15.208  c-11.023-2.095-24.042-1.284-36.633-0.499c-9.36,0.584-19.04,1.188-27.616,0.536c-8.314-0.631-14.077-2.801-18.019-5.227  c1.808,2.758,4.323,5.017,7.344,6.452c4.592,2.182,10.319,3.288,17.021,3.288h52C136.258,44.48,136.414,44.477,136.651,44.477z   M125.357,33.599c6.125,0,12.095,0.361,17.675,1.422c13.856,2.634,23.881,9.605,29.015,13.95c0.089-2.201,0.025-4.529-0.271-6.915  c-6.97-6.976-19.33-11.841-35.824-14.089c-8.736-1.189-18.694,0.165-29.239,1.599c-10.625,1.446-21.613,2.941-31.5,1.64  c-10.966-1.443-15.992-5.392-18.282-8.933c-0.158,0.638-0.241,1.275-0.241,1.899c0,0.235,0.004,0.47,0.013,0.703  c0.811,1.571,5.428,8.887,21.526,10.11c8.232,0.625,17.312,0.059,26.926-0.541C111.869,34.025,118.705,33.599,125.357,33.599z   M128.72,22.519c2.712,0,5.358,0.146,7.906,0.493c13.973,1.904,25.27,5.678,33.214,11.041c-0.293-0.787-0.62-1.57-0.983-2.351  c-0.707-1.52-1.442-2.86-2.537-4.627c-0.021-0.034-0.042-0.068-0.061-0.104c-8.284-14.371-37.194-23.519-68.747-21.749  c-8.398,0.471-15.979,1.848-23.177,4.208c-0.041,0.013-0.087,0.027-0.128,0.039c-4.84,1.478-7.847,3.282-9.836,4.476  c-0.481,0.288-0.907,0.543-1.29,0.756l-2.152,1.536c-0.292,0.239-0.573,0.489-0.84,0.75c0.314,1.97,2.399,7.501,15.775,9.261  c9.223,1.213,19.873-0.236,30.173-1.637C113.631,23.578,121.413,22.519,128.72,22.519z M118.571,171.54H92.369  c-1.381,0-2.5-1.119-2.5-2.5s1.119-2.5,2.5-2.5h26.202c1.381,0,2.5,1.119,2.5,2.5S119.952,171.54,118.571,171.54z M129.833,124.199  c-8.398,0-15.231-6.833-15.231-15.231c0-8.399,6.833-15.232,15.231-15.232c8.399,0,15.232,6.833,15.232,15.232  C145.065,117.366,138.232,124.199,129.833,124.199z M122.96,116.54c1.817,1.651,4.23,2.659,6.873,2.659s5.056-1.008,6.874-2.659  H122.96z M130.759,111.54h8.978c0.214-0.822,0.328-1.685,0.328-2.573c0-0.6-0.052-1.188-0.151-1.761h-8.306  c0.448,0.452,0.725,1.074,0.725,1.761v0.25C132.333,110.27,131.681,111.172,130.759,111.54z M119.929,111.54h8.978  c-0.922-0.368-1.574-1.27-1.574-2.323v-0.25c0-0.687,0.277-1.309,0.725-1.761h-8.305c-0.1,0.572-0.151,1.161-0.151,1.761  C119.601,109.855,119.715,110.718,119.929,111.54z M122.159,102.206h15.348c-1.876-2.127-4.621-3.471-7.674-3.471  S124.035,100.079,122.159,102.206z M81.115,124.199c-8.398,0-15.231-6.833-15.231-15.231c0-8.399,6.833-15.232,15.231-15.232  s15.231,6.833,15.231,15.232C96.347,117.366,89.514,124.199,81.115,124.199z M74.242,116.54c1.817,1.651,4.23,2.659,6.873,2.659  s5.056-1.008,6.873-2.659H74.242z M82.042,111.54h8.978c0.214-0.822,0.328-1.685,0.328-2.573c0-0.6-0.052-1.188-0.151-1.761H82.89  c0.448,0.452,0.725,1.074,0.725,1.761v0.25C83.615,110.27,82.964,111.172,82.042,111.54z M71.212,111.54h8.978  c-0.922-0.368-1.574-1.27-1.574-2.323v-0.25c0-0.687,0.277-1.309,0.725-1.761h-8.305c-0.1,0.572-0.151,1.161-0.151,1.761  C70.884,109.855,70.998,110.718,71.212,111.54z M73.442,102.206h15.348c-1.876-2.127-4.621-3.471-7.674-3.471  S75.318,100.079,73.442,102.206z" data-original="#000000" class="active-path" data-old_color="#000000" fill="#FFFFFF"/></g> </svg>
