<?xml version="1.0"?>
<svg xmlns="http://www.w3.org/2000/svg" xmlns:xlink="http://www.w3.org/1999/xlink" version="1.1" id="Capa_1" x="0px" y="0px" viewBox="0 0 232.774 232.774" style="enable-background:new 0 0 232.774 232.774;" xml:space="preserve" width="512px" height="512px" class=""><g><path d="M116.318,232.774c-37.51,0-68.027-30.517-68.027-68.027v-0.988h-1.488c-11.568,0-20.979-9.411-20.979-20.979v-9.606  c0-11.568,9.411-20.979,20.979-20.979h1.488V81.276c0-11.853,5.486-23.12,14.753-30.465c-0.333-1.606-0.506-3.262-0.506-4.943  c0-0.98,0.13-2.005,0.386-3.051c0.002-0.009,0.003-0.019,0.005-0.028c0.056-0.303,1.469-7.528,9.817-17.18  c7.968-9.212,9.56-10.819,9.624-10.882c0.629-0.631,1.548-0.877,2.409-0.649c0.861,0.229,1.536,0.898,1.771,1.757l2.093,7.656  c2.216-2.144,5-5.649,5.25-9.894c0.465-7.909,0.037-10.651,0.032-10.678c-0.164-1,0.291-2.011,1.153-2.542  c0.862-0.532,1.959-0.5,2.78,0.095c0.343,0.249,8.423,6.204,10.703,15.155c0.378,1.486,0.686,2.942,0.921,4.359  c2.6-2.634,6.18-4.912,10.691-6.798c14.772-6.176,31.341,4,32.04,4.437c0.928,0.58,1.371,1.697,1.093,2.756  c-0.278,1.059-1.213,1.813-2.307,1.862c-0.043,0.002-4.091,0.215-7.395,1.813c3.845,0.332,6.965,0.33,8.875-0.019  c4.311-0.79,7.562-5.403,7.593-5.449c0.565-0.828,1.572-1.239,2.554-1.043c0.983,0.196,1.755,0.96,1.959,1.942  c0.045,0.219,1.105,5.422-0.024,9.874c-0.068,0.27-0.15,0.541-0.244,0.815c0.301-0.114,0.585-0.268,0.846-0.461  c0.659-0.489,1.309-1.02,1.93-1.578c6.413-5.76,11.243-7.543,11.445-7.617c0.902-0.326,1.913-0.106,2.598,0.565  c0.686,0.671,0.927,1.676,0.62,2.586l-2.083,6.168l2.064-0.09c0.906-0.034,1.776,0.422,2.25,1.206  c0.473,0.783,0.479,1.762,0.018,2.552l-1.944,3.329c3.612,2.221,10.315,6.938,12.412,12.451c3.156,8.294,3.553,16.887,1.088,23.574  c-2.643,7.173-2.904,8.414-1.113,11.608c1.905,3.396,6.53,5.089,6.576,5.105c1.04,0.364,1.719,1.365,1.672,2.465  c-0.046,1.101-0.808,2.041-1.874,2.315c-0.853,0.219-8.478,2.104-13.501,0.595c-1.17-0.351-2.15-0.756-2.976-1.189v18.435h1.624  c11.568,0,20.979,9.411,20.979,20.979v9.606c0,11.568-9.411,20.979-20.979,20.979h-1.624v0.988  C184.346,202.257,153.829,232.774,116.318,232.774z M53.291,161.258v3.488c0,34.753,28.274,63.027,63.027,63.027  c34.754,0,63.028-28.274,63.028-63.027v-21.191h-4.429c-0.668,0-1.308-0.267-1.778-0.742s-0.729-1.118-0.722-1.786  c0.003-0.29,0.303-29.081-1.925-37.996c-2.04-8.159-7.934-11.366-7.994-11.398c-0.604-0.32-1.051-0.874-1.235-1.533  c-0.185-0.658-0.092-1.364,0.257-1.952c0.033-0.055,3.431-5.876,3.581-11.458c0.023-0.868-3.576-2.991-8.331-4.344  c-5.402-1.153-9.553-1.089-9.656-1.09c-0.019,0-0.042,0.001-0.061,0.001h-52c-7.521,0-14.019-1.292-19.313-3.842  c-0.886-0.426-1.738-0.908-2.554-1.439c-2.335,2.7-5.657,7.304-5.648,10.775c0.014,5.562,3.521,11.301,3.557,11.358  c0.364,0.588,0.467,1.301,0.286,1.969c-0.181,0.667-0.63,1.23-1.241,1.554c-0.231,0.126-5.98,3.342-7.994,11.398  c-2.229,8.917-1.929,37.706-1.925,37.996c0.007,0.668-0.252,1.311-0.722,1.786s-1.11,0.742-1.778,0.742h-4.429V161.258z   M184.483,158.758h1.488c8.811,0,15.979-7.168,15.979-15.979v-9.606c0-8.811-7.168-15.979-15.979-15.979h-1.488V158.758z   M46.803,117.194c-8.811,0-15.979,7.168-15.979,15.979v9.606c0,8.811,7.168,15.979,15.979,15.979h1.488v-41.564H46.803z   M177.433,138.555h1.913V88.29c-2.173-4.74-5.537-8.161-9.288-10.63c-0.302,4.367-1.991,8.548-3.145,10.954  c2.525,1.973,6.663,6.137,8.429,13.204C177.341,109.814,177.456,131.156,177.433,138.555z M53.291,138.555h1.913  c-0.023-7.398,0.092-28.741,2.091-36.737c1.761-7.043,5.876-11.204,8.404-13.185c-1.272-2.577-3.15-7.171-3.162-11.869  c-0.013-5.307,4.219-11.005,6.778-13.963c-1.924-1.964-3.5-4.273-4.648-6.826c-7.177,6.391-11.377,15.623-11.377,25.301V138.555z   M184.068,86.545c0.07,0.122,0.141,0.252,0.215,0.388c0.574,1.055,1.225,2.251,4.475,3.226c1.176,0.354,2.713,0.42,4.279,0.342  c-1.107-0.984-2.157-2.175-2.949-3.587l0,0c-3.038-5.416-1.762-8.88,0.782-15.783c2.053-5.571,1.663-12.886-1.07-20.067  c-1.771-4.656-9.509-9.604-12.341-11.118c-0.599-0.32-1.043-0.871-1.228-1.525c-0.185-0.654-0.097-1.355,0.246-1.941l0.897-1.536  l-1.129,0.049c-0.834,0.03-1.613-0.337-2.108-0.996c-0.496-0.659-0.634-1.521-0.37-2.302l1.158-3.428  c-1.328,0.931-2.848,2.111-4.493,3.588c-0.737,0.662-1.508,1.292-2.292,1.874c-2.492,1.848-5.847,2.202-8.758,0.921  c-0.688-0.303-1.218-0.905-1.418-1.629s-0.081-1.506,0.354-2.119c0.715-1.008,1.184-1.941,1.395-2.772  c0.19-0.75,0.294-1.566,0.339-2.38c-1.77,1.403-4.038,2.721-6.673,3.204c-4.283,0.783-11.29,0.048-15.086-0.46  c-1.36-0.183-2.448-1.162-2.771-2.494c-0.325-1.336,0.195-2.709,1.323-3.498l2.404-1.681c1.22-0.853,2.58-1.504,3.926-2  c-5.524-2.125-13.751-4.083-21.074-1.019c-6.5,2.718-9.508,5.82-10.887,7.943c-0.437,0.673-1.169,1.095-1.97,1.135l-1.598,0.087  c-0.667,0.044-1.315-0.181-1.813-0.62c-0.498-0.439-0.801-1.059-0.841-1.721c-0.148-2.406-0.579-5.019-1.278-7.765  c-0.845-3.319-2.778-6.2-4.618-8.342c-0.025,1.479-0.089,3.254-0.214,5.372c-0.567,9.647-9.873,15.821-10.269,16.08  c-0.669,0.436-1.507,0.527-2.253,0.243c-0.747-0.284-1.313-0.907-1.524-1.678l-1.91-6.985c-1.417,1.6-3.467,3.938-6.399,7.329  c-6.812,7.876-8.442,13.816-8.659,14.717c-0.013,0.092-0.032,0.185-0.056,0.276c-0.183,0.705-0.276,1.376-0.276,1.995  c0,7.315,4.115,13.997,10.484,17.023c4.592,2.182,10.319,3.288,17.021,3.288h52C148.119,66.157,174.904,65.714,184.068,86.545z   M145.403,201.181H87.535c-2.75,0-5.284-1.253-6.952-3.438c-1.669-2.185-2.211-4.959-1.487-7.612l1.908-6.992  c0.008-0.034,0.018-0.067,0.027-0.101l2.268-8.307c0.929-3.407,3.792-5.907,7.293-6.369l49.322-6.514  c4.549-0.604,8.831,2.459,9.726,6.971l2.859,14.419c0.002,0.014,0.005,0.028,0.008,0.042l1.478,7.453  c0.511,2.579-0.152,5.222-1.82,7.253C150.496,200.016,148.031,201.181,145.403,201.181z M85.339,186.248l-1.419,5.199  c-0.31,1.136-0.078,2.325,0.637,3.261s1.801,1.473,2.979,1.473h57.869c1.126,0,2.182-0.499,2.896-1.369  c0.715-0.87,0.999-2.003,0.78-3.107l-1.082-5.457H85.339z M86.703,181.248h60.303l-2.271-11.456  c-0.383-1.932-2.209-3.243-4.167-2.986l-49.322,6.514c-1.5,0.198-2.726,1.269-3.125,2.729L86.703,181.248z M140.681,149.229  c-10.237,0-18.565-8.328-18.565-18.565s8.328-18.565,18.565-18.565s18.565,8.328,18.565,18.565S150.918,149.229,140.681,149.229z   M132.864,141.744c2.211,1.564,4.909,2.485,7.817,2.485s5.607-0.92,7.818-2.485H132.864z M128.557,136.744h24.25  c0.921-1.83,1.44-3.896,1.44-6.08c0-0.972-0.103-1.921-0.298-2.836h-26.534c-0.195,0.915-0.298,1.864-0.298,2.836  C127.116,132.849,127.635,134.915,128.557,136.744z M129.614,122.828h22.134c-2.46-3.464-6.504-5.729-11.067-5.729  S132.075,119.364,129.614,122.828z M91.964,145.896c-8.398,0-15.231-6.833-15.231-15.231s6.833-15.231,15.231-15.231  s15.231,6.833,15.231,15.231c0,2.453-0.583,4.771-1.617,6.826c-0.044,0.103-0.096,0.202-0.153,0.297  C102.864,142.606,97.791,145.896,91.964,145.896z M86.029,138.994c1.675,1.197,3.724,1.901,5.935,1.901s4.26-0.705,5.935-1.901  H86.029z M82.289,133.994h19.351c0.36-1.044,0.556-2.165,0.556-3.33c0-5.642-4.59-10.231-10.231-10.231s-10.231,4.59-10.231,10.231  C81.733,131.829,81.928,132.95,82.289,133.994z M140.681,133.414c-1.381,0-2.5-1.119-2.5-2.5v-0.25c0-1.381,1.119-2.5,2.5-2.5  s2.5,1.119,2.5,2.5v0.25C143.181,132.295,142.062,133.414,140.681,133.414z M91.964,133.414c-1.381,0-2.5-1.119-2.5-2.5v-0.25  c0-1.381,1.119-2.5,2.5-2.5s2.5,1.119,2.5,2.5v0.25C94.464,132.295,93.345,133.414,91.964,133.414z M80.887,107.77  c-1.211,0-2.276-0.882-2.467-2.117c-0.212-1.364,0.722-2.642,2.087-2.854l22.147-3.438c1.363-0.216,2.642,0.722,2.854,2.086  c0.212,1.365-0.722,2.643-2.086,2.854l-22.147,3.438C81.144,107.76,81.015,107.77,80.887,107.77z M152.926,104.332  c-0.416,0-0.836-0.104-1.224-0.322L132.16,93.006c-1.203-0.677-1.629-2.202-0.952-3.405c0.677-1.204,2.203-1.629,3.405-0.952  l19.542,11.003c1.203,0.677,1.629,2.202,0.952,3.405C154.648,103.873,153.8,104.332,152.926,104.332z" data-original="#000000" class="active-path" data-old_color="#000000" fill="#FFFFFF"/></g> </svg>
