<?xml version="1.0"?>
<svg xmlns="http://www.w3.org/2000/svg" xmlns:xlink="http://www.w3.org/1999/xlink" version="1.1" id="Capa_1" x="0px" y="0px" viewBox="0 0 211.077 211.077" style="enable-background:new 0 0 211.077 211.077;" xml:space="preserve" width="512px" height="512px" class=""><g><path d="M105.47,211.077c-37.51,0-68.027-30.517-68.027-68.027v-0.987h-1.488c-11.568,0-20.979-9.411-20.979-20.979v-9.606  c0-11.567,9.411-20.979,20.979-20.979h1.488V59.58c0-11.853,5.486-23.12,14.753-30.465c-0.333-1.606-0.506-3.262-0.506-4.943  c0-4.318,2.3-8.755,6.153-11.867c0.039-0.031,0.078-0.062,0.118-0.091l2.334-1.666c0.083-0.059,0.169-0.112,0.258-0.161  c0.363-0.197,0.774-0.445,1.245-0.728c2.199-1.319,5.523-3.313,11.019-4.99c7.577-2.485,15.577-3.941,24.416-4.438  c33.891-1.904,64.06,8.079,73.374,24.27c0.003,0.007,0.007,0.013,0.01,0.019c1.203,1.946,2,3.408,2.775,5.075  c7.619,16.387,1.423,33.586,0.107,36.861v24.042h1.624c11.568,0,20.979,9.411,20.979,20.979v9.606  c0,11.568-9.411,20.979-20.979,20.979h-1.624v0.987C173.498,180.561,142.981,211.077,105.47,211.077z M42.443,139.563v3.487  c0,34.753,28.274,63.027,63.027,63.027c34.754,0,63.028-28.274,63.028-63.027v-21.19h-4.429c-0.668,0-1.308-0.268-1.778-0.742  c-0.47-0.476-0.729-1.118-0.722-1.786c0.003-0.29,0.303-29.082-1.925-37.997c-2.014-8.056-7.763-11.271-8.006-11.404  c-0.596-0.325-1.041-0.883-1.22-1.537s-0.092-1.357,0.254-1.941c0.033-0.055,3.431-5.875,3.581-11.457  c0.023-0.87-3.563-2.989-8.306-4.339c-5.414-1.157-9.578-1.096-9.681-1.095c-0.019,0.001-0.042,0.001-0.061,0.001h-52  c-7.519,0-14.017-1.292-19.313-3.841c-0.886-0.427-1.739-0.908-2.555-1.44c-2.334,2.7-5.657,7.304-5.648,10.775  c0.014,5.524,3.523,11.303,3.559,11.36c0.361,0.589,0.464,1.302,0.283,1.968s-0.63,1.229-1.24,1.553  c-0.231,0.126-5.98,3.342-7.994,11.397c-2.229,8.915-1.929,37.707-1.925,37.997c0.007,0.668-0.252,1.311-0.722,1.786  c-0.47,0.475-1.11,0.742-1.778,0.742h-4.429V139.563z M173.634,137.063h1.488c8.811,0,15.979-7.168,15.979-15.979v-9.606  c0-8.811-7.168-15.979-15.979-15.979h-1.488V137.063z M35.955,95.498c-8.811,0-15.979,7.168-15.979,15.979v9.606  c0,8.812,7.168,15.979,15.979,15.979h1.488V95.498H35.955z M166.585,116.86h1.913V66.594c-2.173-4.739-5.537-8.16-9.288-10.631  c-0.302,4.367-1.991,8.548-3.145,10.954c2.525,1.973,6.663,6.138,8.429,13.204C166.493,88.119,166.608,109.461,166.585,116.86z   M42.443,116.86h1.913c-0.023-7.398,0.092-28.741,2.091-36.738c1.761-7.043,5.876-11.204,8.404-13.185  c-1.272-2.576-3.15-7.171-3.162-11.869c-0.013-5.307,4.219-11.004,6.778-13.963c-1.923-1.964-3.501-4.273-4.648-6.826  c-7.177,6.391-11.377,15.622-11.377,25.302V116.86z M136.651,44.478c3.39,0,23.563,0.638,33.743,15.312  c0.355-1.348,0.71-2.914,1.002-4.646c-2.933-2.857-13.529-12.211-29.297-15.209c-11.023-2.095-24.042-1.284-36.633-0.499  c-9.36,0.584-19.04,1.188-27.616,0.536c-8.314-0.632-14.077-2.802-18.02-5.228c1.809,2.759,4.323,5.017,7.344,6.452  c4.59,2.181,10.316,3.287,17.021,3.287h52C136.259,44.481,136.414,44.478,136.651,44.478z M125.357,33.6  c6.125,0,12.095,0.361,17.675,1.422c13.856,2.635,23.881,9.605,29.015,13.95c0.089-2.201,0.025-4.528-0.271-6.915  c-6.971-6.976-19.331-11.842-35.824-14.089c-8.736-1.192-18.694,0.164-29.239,1.599c-10.625,1.445-21.613,2.939-31.5,1.64  c-10.966-1.442-15.992-5.392-18.282-8.933c-0.158,0.638-0.241,1.275-0.241,1.898c0,0.235,0.004,0.47,0.013,0.703  c0.811,1.57,5.428,8.887,21.526,10.109c8.232,0.626,17.312,0.059,26.926-0.54C111.87,34.026,118.705,33.6,125.357,33.6z   M128.72,22.521c2.712,0,5.358,0.146,7.906,0.492c13.973,1.905,25.27,5.678,33.214,11.042c-0.293-0.786-0.62-1.57-0.983-2.352  c-0.705-1.517-1.44-2.857-2.538-4.627c-0.019-0.031-0.039-0.064-0.058-0.099c-8.288-14.377-37.197-23.518-68.75-21.754  c-8.398,0.472-15.979,1.849-23.177,4.209c-0.04,0.014-0.087,0.027-0.128,0.039c-4.84,1.478-7.847,3.281-9.837,4.476  c-0.48,0.288-0.907,0.543-1.289,0.755l-2.152,1.536c-0.292,0.239-0.573,0.49-0.84,0.75c0.315,1.971,2.401,7.501,15.775,9.261  c9.224,1.215,19.874-0.235,30.173-1.637C113.631,23.579,121.414,22.521,128.72,22.521z M105.47,188.813c-23.71,0-43-19.29-43-43  c0-1.381,1.119-2.5,2.5-2.5h81c1.381,0,2.5,1.119,2.5,2.5c0,7.364-1.861,14.303-5.138,20.369c-0.071,0.174-0.161,0.337-0.268,0.488  C135.715,179.867,121.618,188.813,105.47,188.813z M74.445,167.733c6.89,9.723,18.229,16.08,31.025,16.08s24.135-6.357,31.025-16.08  H74.445z M71.449,162.733h68.042c2.193-4.393,3.561-9.269,3.897-14.42H67.552C67.888,153.464,69.256,158.34,71.449,162.733z   M144.786,119.899c-0.398,0-0.797-0.095-1.163-0.287l-10.944-5.754l-10.944,5.754c-0.843,0.442-1.863,0.369-2.633-0.19  c-0.77-0.56-1.155-1.507-0.994-2.445l2.09-12.187l-8.854-8.631c-0.681-0.664-0.927-1.657-0.632-2.563  c0.294-0.905,1.076-1.564,2.018-1.701l12.236-1.778l5.472-11.088c0.421-0.854,1.29-1.394,2.242-1.394s1.821,0.54,2.242,1.394  l5.472,11.088l12.236,1.778c0.942,0.137,1.724,0.796,2.018,1.701c0.294,0.905,0.049,1.898-0.632,2.563l-8.854,8.631l2.09,12.187  c0.161,0.938-0.225,1.886-0.995,2.445C145.821,119.738,145.305,119.899,144.786,119.899z M132.679,108.534  c0.399,0,0.799,0.096,1.164,0.287l7.624,4.008l-1.456-8.489c-0.139-0.812,0.13-1.639,0.719-2.213l6.167-6.012l-8.523-1.239  c-0.814-0.118-1.519-0.629-1.882-1.367l-3.812-7.724l-3.812,7.724c-0.364,0.738-1.068,1.249-1.882,1.367l-8.523,1.239l6.168,6.012  c0.589,0.574,0.858,1.401,0.719,2.213l-1.456,8.489l7.624-4.008C131.88,108.629,132.28,108.534,132.679,108.534z M90.286,119.899  c-0.398,0-0.797-0.095-1.163-0.287l-10.944-5.754l-10.944,5.754c-0.844,0.442-1.863,0.369-2.633-0.19  c-0.77-0.56-1.155-1.507-0.994-2.445l2.09-12.187l-8.854-8.631c-0.681-0.664-0.927-1.657-0.632-2.563  c0.294-0.905,1.076-1.564,2.018-1.701l12.236-1.778l5.472-11.088c0.421-0.854,1.29-1.394,2.242-1.394s1.821,0.54,2.242,1.394  l5.472,11.088l12.236,1.778c0.942,0.137,1.724,0.796,2.018,1.701c0.294,0.905,0.049,1.898-0.632,2.563l-8.854,8.631l2.09,12.187  c0.161,0.938-0.225,1.886-0.995,2.445C91.321,119.738,90.805,119.899,90.286,119.899z M78.179,108.534  c0.399,0,0.799,0.096,1.164,0.287l7.624,4.008l-1.456-8.489c-0.139-0.812,0.13-1.639,0.719-2.213l6.167-6.012l-8.523-1.239  c-0.814-0.118-1.519-0.629-1.882-1.367l-3.812-7.724l-3.812,7.724c-0.364,0.738-1.068,1.249-1.882,1.367l-8.523,1.239l6.168,6.012  c0.589,0.574,0.858,1.401,0.719,2.213l-1.456,8.489l7.624-4.008C77.38,108.629,77.78,108.534,78.179,108.534z" data-original="#000000" class="active-path" data-old_color="#000000" fill="#FFFFFF"/></g> </svg>
